<?xml version="1.0" standalone="no"?>
<!DOCTYPE svg PUBLIC "-//W3C//DTD SVG 20010904//EN"
 "http://www.w3.org/TR/2001/REC-SVG-20010904/DTD/svg10.dtd">
<svg version="1.0" xmlns="http://www.w3.org/2000/svg"
 width="464.000000pt" height="464.000000pt" viewBox="0 0 464.000000 464.000000"
 preserveAspectRatio="xMidYMid meet">
<metadata>
Created by potrace 1.11, written by Peter Selinger 2001-2013
</metadata>
<g transform="translate(0.000000,464.000000) scale(0.100000,-0.100000)"
fill="#000000" stroke="none">
<path d="M2255 4531 c-33 -21 -94 -60 -135 -86 -41 -26 -91 -58 -110 -70 -19
-12 -69 -44 -110 -70 -41 -26 -97 -62 -125 -80 -27 -17 -134 -85 -237 -151
-103 -65 -274 -174 -380 -242 -106 -67 -227 -143 -270 -170 -76 -47 -77 -48
-151 -177 -90 -156 -359 -625 -579 -1008 l-160 -278 27 -62 c15 -34 35 -80 45
-102 10 -22 46 -103 80 -180 34 -77 65 -144 70 -149 4 -4 65 28 136 73 70 45
128 80 130 78 4 -3 10 -44 19 -117 4 -30 8 -66 10 -80 2 -14 7 -51 10 -83 4
-32 8 -66 10 -75 1 -9 6 -46 10 -82 4 -36 9 -73 11 -83 2 -10 6 -48 10 -85 3
-36 7 -74 9 -83 2 -9 6 -40 10 -70 3 -30 8 -65 10 -79 2 -14 6 -50 10 -80 3
-30 10 -86 15 -125 5 -38 12 -92 15 -120 30 -251 192 -488 390 -572 130 -55
80 -53 1302 -52 1245 1 1172 -3 1313 66 53 26 95 57 146 107 91 91 126 145
170 264 32 84 40 120 58 267 3 22 10 78 16 125 6 47 12 99 15 115 2 17 7 57
10 90 4 33 8 71 10 85 2 14 7 48 10 75 3 28 8 64 10 80 2 17 9 71 15 120 15
126 20 166 25 195 2 14 7 54 11 90 11 113 14 121 41 98 48 -39 235 -150 243
-142 4 5 56 118 114 251 l107 243 -134 232 c-147 255 -533 927 -619 1078 -51
89 -60 98 -134 147 -43 28 -84 57 -91 62 -7 6 -14 11 -17 11 -4 0 -224 139
-754 477 -53 34 -102 67 -109 73 -7 5 -14 10 -17 10 -3 0 -52 30 -108 66 -122
79 -337 214 -341 214 -1 0 -29 -17 -62 -39z"/>
</g>
</svg>
